# xmcd
#
# Track frame offsets:
#	150
#	13023
#	26416
#	37099
#	51317
#	61859
#	73778
#	85326
#	97985
#	112792
#	126983
#	138290
#
# Disc length: 2014 seconds
#
# Revision: 0
# Processed by: cddbd v1.5PL3 Copyright (c) Steve Scherf et al.
# Submitted via: audiograbber 1.83.01
#
DISCID=9e07dc0c
DTITLE=Johnny Horton - Johnny Horton's Greatest Hits
DYEAR=1961
DGENRE=Country
TTITLE0=North to Alaska
TTITLE1=Whispering Pines
TTITLE2=Johnny Reb
TTITLE3=The Mansion You Stole
TTITLE4=I'm Ready, If You're Willing
TTITLE5=When It's Springtime in Alaska (It's Forty Below)
TTITLE6=The Battle of New Orleans
TTITLE7=All for the Love of a Girl
TTITLE8=Sink the Bismarck
TTITLE9=Comanche (The Brave Horse)
TTITLE10=Jim Bridger
TTITLE11=Johnny Freedom
EXTD=Columbia CS-8396
EXTT0=
EXTT1=
EXTT2=
EXTT3=
EXTT4=
EXTT5=
EXTT6=
EXTT7=
EXTT8=
EXTT9=
EXTT10=
EXTT11=
PLAYORDER=
